<?xml version="1.0" encoding="utf-8"?>
<!-- Generator: Adobe Illustrator 27.5.0, SVG Export Plug-In . SVG Version: 6.00 Build 0)  -->
<svg version="1.1" id="Layer_1" xmlns="http://www.w3.org/2000/svg" xmlns:xlink="http://www.w3.org/1999/xlink" x="0px" y="0px"
	 viewBox="0 0 62 62" style="enable-background:new 0 0 62 62;" xml:space="preserve">
<style type="text/css">
	.st0{fill:#AB9834;}
	.st1{fill:#D2D2D2;}
</style>
<g>
	<path class="st0" d="M31,62C13.9,62,0,48.1,0,31C0,13.9,13.9,0,31,0c17.1,0,31,13.9,31,31C62,48.1,48.1,62,31,62z M31,1
		C14.5,1,1,14.5,1,31s13.5,30,30,30s30-13.5,30-30S47.5,1,31,1z"/>
</g>
<g>
	<g>
		<path class="st1" d="M28,40.5c-0.1,0-0.2,0-0.2-0.1c-0.2-0.1-0.3-0.3-0.3-0.4V22c0-0.2,0.1-0.4,0.3-0.4c0.2-0.1,0.4-0.1,0.5,0
			l12,9.1c0.1,0.1,0.2,0.2,0.2,0.4c0,0.2-0.1,0.3-0.2,0.4l-12,8.9C28.2,40.5,28.1,40.5,28,40.5z M28.5,23v16l10.7-7.9L28.5,23z"/>
	</g>
</g>
</svg>
