<?xml version="1.0" encoding="utf-8"?>
<!-- Generator: Adobe Illustrator 27.5.0, SVG Export Plug-In . SVG Version: 6.00 Build 0)  -->
<svg version="1.1" id="Layer_1" xmlns="http://www.w3.org/2000/svg" xmlns:xlink="http://www.w3.org/1999/xlink" x="0px" y="0px"
	 viewBox="0 0 62 62" style="enable-background:new 0 0 62 62;" xml:space="preserve">
<style type="text/css">
	.st0{fill:#AB9834;}
	.st1{fill:#D2D2D2;}
</style>
<g>
	<path class="st0" d="M31,62C13.9,62,0,48.1,0,31C0,13.9,13.9,0,31,0c17.1,0,31,13.9,31,31C62,48.1,48.1,62,31,62z M31,1
		C14.5,1,1,14.5,1,31s13.5,30,30,30s30-13.5,30-30S47.5,1,31,1z"/>
</g>
<g>
	<g>
		<path class="st1" d="M34.8,41.1c-0.1,0-0.2,0-0.3-0.1l-7.8-6.4h-5.2c-0.3,0-0.5-0.2-0.5-0.5v-6.5c0-0.3,0.2-0.5,0.5-0.5h5.4
			l7.6-6.2c0.1-0.1,0.4-0.1,0.5-0.1c0.2,0.1,0.3,0.3,0.3,0.5v19.3c0,0.2-0.1,0.4-0.3,0.5C34.9,41.1,34.9,41.1,34.8,41.1z M22,33.6
			h4.9c0.1,0,0.2,0,0.3,0.1l7.1,5.8V22.4L27.4,28c-0.1,0.1-0.2,0.1-0.3,0.1H22V33.6z"/>
	</g>
	<g>
		<path class="st1" d="M38.7,35.1c-0.2,0-0.3-0.1-0.4-0.2c-0.2-0.2-0.1-0.5,0.1-0.7c1.1-0.8,1.7-2,1.7-3.2c0-1.2-0.7-2.3-1.8-3.2
			c-0.2-0.2-0.3-0.5-0.1-0.7c0.2-0.2,0.5-0.3,0.7-0.1c1.4,1,2.2,2.5,2.2,4c0,1.5-0.8,3-2.1,4C38.9,35.1,38.8,35.1,38.7,35.1z"/>
	</g>
</g>
</svg>
