<?xml version="1.0" encoding="utf-8"?>
<!-- Generator: Adobe Illustrator 27.5.0, SVG Export Plug-In . SVG Version: 6.00 Build 0)  -->
<svg version="1.1" id="Layer_1" xmlns="http://www.w3.org/2000/svg" xmlns:xlink="http://www.w3.org/1999/xlink" x="0px" y="0px"
	 viewBox="0 0 353.2 123.1" style="enable-background:new 0 0 353.2 123.1;" xml:space="preserve">
<style type="text/css">
	.st0{fill:#FFFFFF;}
</style>
<path class="st0" d="M41.9,105.8h-7.2v2.6h4.2v2.7h-4.2v5.9h-2.8v-14h10V105.8z M59.3,110c0,4.5-2.5,7.2-6.2,7.2
	c-3.7,0-6.2-2.7-6.2-7.2c0-4.5,2.5-7.2,6.2-7.2C56.8,102.8,59.3,105.5,59.3,110z M56.4,110.1c0-2.8-1.4-4.5-3.3-4.5
	c-2,0-3.3,1.6-3.3,4.4c0,2.8,1.4,4.5,3.3,4.5S56.4,112.9,56.4,110.1z M77.4,117.1h-3.2l-2.5-5h-2.8v5h-2.8v-14h6.5
	c2.6,0,4.8,1.5,4.8,4.4c0,2.1-0.9,3.4-2.7,4.1L77.4,117.1z M74.5,107.6c0-1.3-0.8-1.8-2-1.8h-3.7v3.6h3.7
	C73.8,109.4,74.5,108.8,74.5,107.6z M104.1,105.8h-4v11.2h-2.8v-11.2h-4v-2.8h10.8V105.8z M122.1,117.1h-2.8v-5.9h-5.7v5.9h-2.8v-14
	h2.8v5.4h5.7v-5.4h2.8V117.1z M139.8,117.1h-10v-14h9.7v2.7h-6.9v2.4h4v2.7h-4v3.4h7.2V117.1z M167.1,105.9l-2.6,1.2
	c-0.5-1-1.3-1.5-2.6-1.5c-2.1,0-3.3,1.8-3.3,4.4c0,2.5,1.2,4.4,3.3,4.4c1.3,0,2-0.5,2.7-1.8l2.4,1.4c-1,2-2.6,3.2-5.2,3.2
	c-3.7,0-6.1-2.8-6.1-7.2c0-4.3,2.6-7.2,6.2-7.2C164.7,102.8,166.3,104.1,167.1,105.9z M185.3,117.1h-2.8v-5.9h-5.7v5.9h-2.8v-14h2.8
	v5.4h5.7v-5.4h2.8V117.1z M204.4,110c0,4.5-2.5,7.2-6.2,7.2c-3.7,0-6.2-2.7-6.2-7.2c0-4.5,2.5-7.2,6.2-7.2
	C201.9,102.8,204.4,105.5,204.4,110z M201.6,110.1c0-2.8-1.4-4.5-3.3-4.5s-3.3,1.6-3.3,4.4c0,2.8,1.4,4.5,3.3,4.5
	C200.3,114.5,201.6,112.9,201.6,110.1z M221.2,112.8c0,2.7-1.7,4.5-5.5,4.5c-2.3,0-4.4-1-5.4-2.5l2-1.8c1,1.1,2.2,1.6,3.6,1.6
	c1.7,0,2.4-0.5,2.4-1.5c0-0.9-0.5-1.3-3.1-1.9c-2.6-0.6-4.4-1.4-4.4-4.2c0-2.5,2.2-4.1,5-4.1c2.2,0,3.8,0.8,5.1,2.2l-2,2
	c-0.9-0.9-1.9-1.4-3.2-1.4c-1.5,0-2,0.6-2,1.3c0,0.9,0.6,1.2,2.8,1.7C218.8,109,221.2,109.8,221.2,112.8z M238.2,117.1h-10v-14h9.7
	v2.7H231v2.4h4v2.7h-4v3.4h7.2V117.1z M256.5,117.1H254l-5.1-7.6c-0.3-0.5-0.8-1.2-1-1.6c0,0.5,0,2.3,0,3.1v6.2h-2.8v-14h2.7l5,7.4
	c0.3,0.5,0.8,1.2,1,1.6c0-0.5,0-2.3,0-3.1v-5.9h2.8V117.1z M284,105.8h-7.2v2.6h4.2v2.7h-4.2v5.9h-2.8v-14h10V105.8z M300.5,117.1
	h-10v-14h9.7v2.7h-6.9v2.4h4v2.7h-4v3.4h7.2V117.1z M322.1,103.1l-2.9,14h-2.7l-1.7-7.2c-0.2-0.8-0.4-1.9-0.5-2.4
	c-0.1,0.5-0.3,1.6-0.5,2.4l-1.8,7.2h-2.6l-2.9-14h2.9l1.2,6.8c0.1,0.7,0.3,1.7,0.3,2.3c0.1-0.6,0.3-1.6,0.5-2.3l1.6-6.8h2.4l1.7,6.8
	c0.2,0.7,0.4,1.7,0.5,2.3c0.1-0.6,0.2-1.6,0.3-2.3l1.2-6.8H322.1z"/>
<g>
	<path class="st0" d="M28.4,31.7c0,9.2-3.3,14.2-10.2,14.2c-6.9,0-10.1-5.1-10.1-14.7V2.1H1.6v29.3c0,13.9,5.7,22,16.6,22
		C29,53.4,35,45.7,35,31.5V2.1h-6.6V31.7z"/>
	<path class="st0" d="M74.4,2.1h-6.6v50.6h28.5v-7.5H74.4V2.1z"/>
	<path class="st0" d="M122.9,9.5h12.8v43.1h6.6V9.5h12.8V2.1h-32.2V9.5z"/>
	<path class="st0" d="M201.1,2.1h-6.6v50.6h6.6V2.1z"/>
	<path class="st0" d="M263.1,29c-1.1,3-2.3,6.6-2.9,8.7c-0.6-2.1-1.9-5.8-3-8.7l-9.9-26.9h-6.8v50.6h6.2V25.9c0-3-0.1-7.4-0.1-8.9
		c0.5,1.4,1.8,5,2.8,7.9L260,53.4L270.7,25c1.1-2.9,2.3-6.5,2.8-7.9c-0.1,1.4-0.1,5.8-0.1,8.9v26.7h6.5V2.1h-7L263.1,29L263.1,29z"
		/>
	<path class="st0" d="M325.2,33.8l3.5-11.6c1.1-3.8,2.7-9.5,3.2-11.7c0.5,2.2,2.3,8,3.3,11.6l3.5,11.7L325.2,33.8L325.2,33.8z
		 M335.5,2.1h-7l-15.9,50.6h6.9l3.6-12h17.6l3.7,12h7L335.5,2.1z"/>
</g>
</svg>
